Coordinates
version=1
nRows=12
nColumns=28
inDegrees=yes

Units are S.I. units (second, meters, Newtons, ...)
Angles are in degrees.

endheader
time	pelvis_tilt	pelvis_list	pelvis_rotation	pelvis_tx	pelvis_ty	pelvis_tz	hip_flexion_r	hip_adduction_r	hip_rotation_r	knee_angle_r	ankle_angle_r	subtalar_angle_r	mtp_angle_r	hip_flexion_l	hip_adduction_l	hip_rotation_l	knee_angle_l	socket_flexion	socket_adduction	socket_rotation	socket_tx	socket_ty	socket_tz	foot_flex	lumbar_extension	lumbar_bending	lumbar_rotation
      0.00000000	      4.00998154	     -9.79402253	    -16.71225657	     -0.86819942	      0.98754919	      0.33148953	    -28.97920715	      6.40070889	     17.96406482	     -9.11853925	      8.93083060	    -10.51105299	     21.87287186	     19.79180566	    -16.35193332	    -15.25871504	     -9.36787122	      0.00000000	      0.00000000	      0.00000000	      0.00000000	      0.00000000	      0.00000000	      2.54066584	    -16.28993456	      4.38493717	     22.90045942
      0.00416667	      3.91415267	     -9.82473228	    -16.69731694	     -0.86282535	      0.98694303	      0.33107078	    -28.97788481	      6.41553005	     17.93253837	     -9.47285639	      8.74848247	    -10.56006947	     21.87236624	     19.55024246	    -16.27651247	    -15.27886404	     -9.19522791	      0.00000000	      0.00000000	      0.00000000	      0.00000000	      0.00000000	      0.00000000	      2.28237256	    -16.14377210	      4.44511955	     22.87745027
      0.00833333	      3.82128057	     -9.83707793	    -16.72924277	     -0.85733102	      0.98637468	      0.33066861	    -28.90870553	      6.39897122	     17.85486515	     -9.95353568	      8.45499092	    -10.65961490	     21.89166714	     19.30767354	    -16.19337657	    -15.42119867	     -9.07714920	      0.00000000	      0.00000000	      0.00000000	      0.00000000	      0.00000000	      0.00000000	      2.00233738	    -16.00722020	      4.47386532	     22.85984678
      0.01250000	      3.73775338	     -9.86196062	    -16.63479099	     -0.85148717	      0.98571452	      0.33016892	    -28.99680535	      6.42775681	     17.90899617	    -10.18953587	      8.38751091	    -10.66475120	     21.89418079	     19.12532788	    -16.09182081	    -15.43004614	     -9.05992869	      0.00000000	      0.00000000	      0.00000000	      0.00000000	      0.00000000	      0.00000000	      1.92964633	    -15.83604540	      4.52322508	     22.85778909
      0.01666667	      3.59704448	     -9.82252862	    -16.80562179	     -0.84559197	      0.98521709	      0.32993065	    -28.75378440	      6.33188405	     17.75208572	    -10.92148676	      7.84280965	    -10.87358362	     21.95178386	     18.79602952	    -15.99420909	    -15.67336042	     -8.77980986	      0.00000000	      0.00000000	      0.00000000	      0.00000000	      0.00000000	      0.00000000	      1.47945888	    -15.65208001	      4.48179051	     22.85483269
      0.02083333	      3.49227252	     -9.81914947	    -16.82429703	     -0.83956026	      0.98464804	      0.32952234	    -28.69238887	      6.30528552	     17.73443818	    -11.39274095	      7.54650232	    -10.96809999	     22.00569803	     18.53909903	    -15.88785918	    -15.73598114	     -8.64320294	      0.00000000	      0.00000000	      0.00000000	      0.00000000	      0.00000000	      0.00000000	      1.15697996	    -15.47505712	      4.49272551	     22.86004178
      0.02500000	      3.41407189	     -9.83051999	    -16.72925968	     -0.83330064	      0.98408564	      0.32900244	    -28.77225471	      6.31981689	     17.80321798	    -11.65881859	      7.45982482	    -10.97408102	     22.01067538	     18.34290098	    -15.77111368	    -15.73022896	     -8.65793935	      0.00000000	      0.00000000	      0.00000000	      0.00000000	      0.00000000	      0.00000000	      1.08906817	    -15.29175800	      4.52936943	     22.85639453
      0.02916667	      3.29326111	     -9.75623251	    -16.89313133	     -0.82715853	      0.98366913	      0.32877949	    -28.47879375	      6.19772021	     17.62563805	    -12.50388667	      6.79418542	    -11.19925049	     22.04342583	     18.01037075	    -15.63367739	    -15.94477830	     -8.41700199	      0.00000000	      0.00000000	      0.00000000	      0.00000000	      0.00000000	      0.00000000	      0.59625726	    -15.12717050	      4.43772201	     22.81544707
      0.03333333	      3.08294638	     -9.57978956	    -17.02733226	     -0.82063048	      0.98306978	      0.32860741	    -28.24844075	      5.98389626	     17.60857689	    -12.96072250	      5.54758271	    -11.96190492	     25.24810728	     17.83594580	    -15.41438467	    -16.17010223	     -8.30777824	      0.00000000	      0.00000000	      0.00000000	      0.00000000	      0.00000000	      0.00000000	      0.38138756	    -14.72846724	      4.24821782	     22.97147540
      0.03750000	      3.03136113	     -9.51679833	    -17.03068863	     -0.81428322	      0.98273013	      0.32821122	    -28.14426787	      5.90196967	     17.50859356	    -13.57148762	      5.14512336	    -12.01001422	     25.21425010	     17.55089453	    -15.23982444	    -16.23585936	     -8.24644559	      0.00000000	      0.00000000	      0.00000000	      0.00000000	      0.00000000	      0.00000000	      0.10405977	    -14.59305277	      4.17445204	     22.88440353
      0.04166667	      2.96979561	     -9.39840945	    -17.05043258	     -0.80784419	      0.98242411	      0.32786066	    -28.00625526	      5.76909886	     17.41413137	    -14.19930445	      4.67986338	    -12.08359755	     25.19652122	     17.28039745	    -15.01605049	    -16.33120158	     -8.19984414	      0.00000000	      0.00000000	      0.00000000	      0.00000000	      0.00000000	      0.00000000	     -0.13635201	    -14.41482884	      4.03379969	     22.80628668
      0.04583333	      2.91863421	     -9.27118764	    -17.06685565	     -0.80141759	      0.98218609	      0.32756137	    -27.85502265	      5.63551363	     17.33693102	    -14.85028758	      4.20902909	    -12.16759212	     25.18788076	     17.02207969	    -14.79396332	    -16.39508796	     -8.20195915	      0.00000000	      0.00000000	      0.00000000	      0.00000000	      0.00000000	      0.00000000	     -0.38315457	    -14.24232514	      3.87124458	     22.73085803
